<?xml version="1.0" encoding="UTF-8"?>
<svg id="Capa_2" data-name="Capa 2" xmlns="http://www.w3.org/2000/svg" viewBox="0 0 375.43 529.65">
  <defs>
    <style>
      .cls-1 {
        fill: #dc4921;
      }
    </style>
  </defs>
  <g id="Capa_21" data-name="Capa 21">
    <g>
      <path class="cls-1" d="M358.36,276.04c-4.7,13.49-14.92,24.98-27.77,31.23-7.63,3.73-16.02,5.62-23.87,8.83-7.87,3.21-15.56,8.13-19.25,15.78-.9,1.86-1.54,3.84-2.14,5.81-2.56,8.4-4.45,17.94-5.69,26.62l-42.68,28.47c2.62-4.69,2.45-10.38,2.03-15.73-1.14-14.54-3.62-29.06-2.81-43.62.8-14.57,5.35-29.62,16.05-39.54,3.65-3.4,7.88-6.08,12.24-8.5,6.42-3.55,13.13-6.57,20.05-8.99,7.13-2.5,14.46-4.36,21.68-6.61,9.41-2.93,18.62-6.51,27.55-10.71,1.79-.83,3.58-1.7,5.19-2.84,3.39-2.4,5.83-5.87,8.21-9.27,4.17-5.94,8.96-12.57,13.13-18.53,1.79,15.93,3.37,32.49-1.91,47.62Z"/>
      <path class="cls-1" d="M356.78,514.77c-3.4-2.35-6.91-4.76-9.33-8.13-1.15-1.6-2.04-3.37-2.9-5.15-4.27-8.89-7.94-18.07-10.96-27.46-2.31-7.19-4.24-14.51-6.82-21.61-2.48-6.89-5.56-13.59-9.18-19.96-2.45-4.35-5.19-8.56-8.61-12.17-4.39-4.63-9.76-8.1-15.63-10.56,8.38-1.24,19.79-4.6,30.24-13.38,22.76-19.06,21.81-47.51,21.65-50.89-.95-.04-1.83.84-2.6,1.4-8.22,5.96-17.12,11.82-27.24,12.81-4.45.43-8.96-.1-13.4.49-7.94,1.05-15.02,5.62-21.03,10.94l-42.68,28.47-32.15,27.3c-11.18-11.46-25.76-23.42-41.63-28.54-34.23-11.06-71.01,10.8-90.9,25.54-3.45-5.68-5.81-10.78-7.42-14.26-20.56-44.28-2.04-88.36,3.12-100.62,11.51-27.39,28.94-44.97,39.19-53.92-4.78,13.84,1.77,28.44,13.46,33.35,9.26,3.87,20.67,1.24,28.38-6.73,5.47-5.49,13.62-15.13,19.02-29.25,8.73-22.89,4.72-43.23,2.71-51.2,10.2,6.61,29.95,21.37,44.38,47.68,12.45,22.7,15.35,43.79,16.09,55.57,10.01-19.3,21.77-28.51,31.01-33.33,14.94-7.82,27.59-6.45,49.44-18.14,8.12-4.35,14.34-8.81,18.43-11.99,33.05-22.82-8.78-74.59-8.78-74.59-1.66,4.21-3.93,10.75-5.55,19.02-2.22,11.37-1.05,15.13-4.39,20.19-4.53,6.83-14.74,12.11-22.23,9.36-11.43-4.2-12.13-25.38-12.29-30.42-.09-2.53-.03-7.6.43-13.31.47-5.68,1.17-9.77,1.42-11.37.93-5.89,1.75-14.92,1.08-28.56-.89-52.66-43.88-55.59-43.88-55.59,2.57,4.35,6.28,12.19,6.14,22.24-.07,5.16-.18,11.53-4.69,16.96-6.55,7.88-17.41,7.66-19.89,7.6-7.23-.15-12.5-2.99-15.5-4.67-10.43-5.86-16.02-15.13-27.21-33.64-3.36-5.58-4.24-7.51-4.67-8.49-3.39-7.69-4.67-15.5-4.7-26.07-.06-20.82,4.75-41.67,6.74-49.69-8.16,3.68-32.39,15.85-45.62,43.39-8.18,17.01-8.56,32.36-8.58,36.28-.13,18.23,6.06,26.2,10.91,45.64,3.08,12.29,5.83,30.03,3.8,52.99-2.13,12.51-11.45,20.64-20.04,20.19-5.35-.28-11.55-3.98-13.99-9.26-.53-1.17-.72-2.04-1.36-8.44-1.04-10.17-.95-11.92-1.32-14.48-1.35-9.05-6.63-15.44-8.24-17.41-8.38-10.14-20.01-12.73-24.09-13.44,2.13,9.72,4.45,27.14-1.46,47.09-2.48,8.41-5.89,15.36-9.11,20.81-5.59,9.66-11.33,19.4-17.21,29.22-4.75,7.91-9.51,15.7-14.26,23.39-8.1,15.2-33.51,67.42-17.92,130.46,7.32,29.62,21.18,51.43,31.59,64.93,2.97,4.02,38.8,50.83,100.69,48.56,27-.99,48.45-12.04,61.86-21.12.47-.33.93-.65,1.39-.96,7.66,13.18,21.71,30.17,45.19,36.81,23.32,6.6,43.14-.62,50.03-3.5-7.7-1.73-17.39-4.87-27.51-10.82-7.02-4.14-12.45-8.77-17.02-13.77,5.19-4.04,10.48-9.15,15.29-15.6,3.25-4.38,5.89-8.83,7.99-13.24,5.94,4.02,10.01,10.59,12.82,17.3,3.28,7.82,5.25,16.19,9.04,23.79,6.39,12.79,17.95,22.88,31.5,27.48,15.19,5.12,31.74,3.39,47.62,1.43-5.97-4.11-12.64-8.84-18.65-12.94ZM114.36,457.78c-18.94-6.08-31.03-19.06-38.66-30.64,19.49-6.43,57.9-14.49,90.71,6.77,5.94,3.84,10.96,8.19,15.19,12.61-13.07,8.22-38.88,20.36-67.24,11.25Z"/>
    </g>
  </g>
</svg>